# xmcd
#
# Track frame offsets:
#	150
#	12614
#	23868
#	36235
#	54953
#	70182
#	83273
#	97092
#	111556
#	127782
#	138375
#	148488
#	162647
#	175625
#	182374
#	196319
#
# Disc length: 2766 seconds
# Revision: 0
# Processed by: cddbd v1.5.2PL0 Copyright (c) Steve Scherf et al.
# Submitted via: dBpowerAMP V12.0
#
DISCID=dc0acc10
DTITLE=Lone Prairie - Back on the Dusty Trail
DYEAR=2007
DGENRE=Country
TTITLE0=One More Ride
TTITLE1=Back on the Dusty Trail
TTITLE2=Whoopie Ti Yi Yo
TTITLE3=Girl from the Red Rose Saloon
TTITLE4=Song of the Bandit
TTITLE5=Everlasting Hills of Oklahoma
TTITLE6=Junior and Jessie
TTITLE7=I Wonder if She Waits
TTITLE8=Sky Ball Paint
TTITLE9=Tumblin' Tumbleweeds
TTITLE10=Goodbye Ol' Pal
TTITLE11=The Waltz You Saved for Me
TTITLE12=Chant of the Plains
TTITLE13=There's a Blue Sky
TTITLE14=Milk Cow Blues
TTITLE15=Yodelin' Crazy
EXTD=
EXTT0=
EXTT1=
EXTT2=
EXTT3=
EXTT4=
EXTT5=
EXTT6=
EXTT7=
EXTT8=
EXTT9=
EXTT10=
EXTT11=
EXTT12=
EXTT13=
EXTT14=
EXTT15=
PLAYORDER=
